<svg version="1" xmlns="http://www.w3.org/2000/svg" width="665.333" height="665.333" viewBox="0 0 499.000000 499.000000"><path d="M0 249.5V499h499V0H0v249.5zM266.5 23.1c6.2 2.9 11.6 8.3 15.2 15.1 2.4 4.6 2.8 6.5 2.8 13.8 0 7.3-.4 9.3-2.8 14.2-1.5 3.1-4.6 7.2-6.7 9.2l-4 3.6.2 23.1.3 23.1 9.3 2.4c15 3.8 26.1 8.4 38.1 16.1l5.4 3.5 16.7-16.7 16.7-16.7.5-6.7c.9-12.1 7.5-21.9 18.4-27.2 5.5-2.7 7.6-3.2 13.8-3.2 12.6 0 23.8 6.9 29.3 18.1 3.9 8 4 19.2.2 27.2-5.5 11.6-15.3 18.2-28 18.8l-7.6.4-16.4 16.4c-15.8 15.8-16.3 16.5-14.9 18.7 10 15.7 14.7 26.1 18.5 41.1l2.3 9.1 23.7.3 23.7.2 4.9-4.4c12-10.8 30.8-10.8 42.8 0 7.4 6.7 10.6 13.8 10.6 23.9 0 9.5-2.8 16.6-9.1 22.9-6.3 6.3-13.4 9.1-22.9 9.1-9.7 0-17.1-3-23.3-9.4l-4-4.1H374l-.6 2.8c-3.9 17.9-8.7 30.5-16.4 42.8l-4.9 7.9 16.7 16.8 16.7 16.7h5.2c15.6 0 30.1 13.2 31.9 29 1.8 16-10 31.7-26.4 35.1-10.2 2.1-22-1.9-29.4-9.9-5.4-5.9-8-12.2-8.6-20.8l-.4-7.2-16.3-16.2-16.2-16.2-9.2 5.6c-10.6 6.3-21.6 10.8-34.6 14.1l-9 2.3-.3 23.4-.2 23.4 3.8 4.1c6.4 6.7 8.6 12.4 8.7 22.3 0 7.3-.4 9.3-2.8 14.2-5.2 10.5-14.6 16.8-26.4 17.6-8.8.6-14.7-.9-20.8-5.3-16.1-11.4-18.6-33.5-5.4-47.9l4.9-5.4-.2-23.3-.3-23.2-6.5-1.3c-12.7-2.6-31.4-10.5-41.9-17.7l-4.3-3-16.8 16.8-16.8 16.8-.4 7.1c-.4 8.5-3.1 14.7-8.9 20.5-6.1 6.1-12 8.5-21.6 8.9-7.1.4-8.9.1-13.6-2.1-7.4-3.4-13.1-8.8-16.4-15.5-2.4-4.9-2.8-6.9-2.8-14.2 0-10 2.3-15.9 9-22.5 6-6 12.4-8.8 21.6-9.3l7.7-.4 16.1-16.2 16.2-16.2-3.7-5.5c-7.5-11.2-14.9-28.8-17.5-41.8l-1.2-6.1h-47l-4.4 4.1c-6.8 6.2-12.3 8.4-21.8 8.4-6.6 0-9-.5-13.5-2.6-6.8-3.2-12.2-8.4-15.8-15.2-2.3-4.5-2.7-6.4-2.7-13.7 0-7.3.4-9.3 2.8-14.2 9.8-19.9 36.1-24.4 51.6-8.9L85 228h46.5l2.3-9.8c2.8-12.3 7.8-24.4 14.3-35.1l5.1-8.3-16.8-16.9-16.9-16.9h-6.1c-4.8 0-7.4-.7-12.2-3-11.5-5.8-18.2-16.3-18.2-28.6 0-10.4 2.2-15.7 9.4-23 7.2-7.2 12.6-9.4 23-9.4 17.3 0 31.6 14 31.6 31v6.5l16.6 16.6 16.7 16.7 6.9-4.5c11.6-7.5 29.8-14.8 41.6-16.8l4.2-.7V77.9l-3.6-3.7c-8.3-8.4-10.9-21.3-6.9-33.2 2.4-7.3 10.8-15.8 18.5-18.8 7.4-3 18.3-2.6 25.5.9z"/><path d="M277.4 163.4c-6.2 2.7-9.6 10.2-7.4 16.1.6 1.7 2.8 5.2 4.9 8 5.1 6.7 6.5 10.6 6.5 18 0 4.7-.7 7.5-2.8 11.8-5 10.2-14 15.7-26 15.7-15.8.1-29.3 5.6-40.2 16.4-17.4 17.3-21.3 41.9-10.3 63.9 4 7.8 11.1 15.4 15.9 16.8 7.2 2.2 15.1-2.9 16.6-10.7.7-4-1.6-10.2-4.9-13.1-3.8-3.4-6.7-11.3-6.7-18.3 0-8.4 3.1-15.1 9.5-20.8 5.7-5 12.2-7.2 21.5-7.2 23.8 0 45.5-16.5 52.4-39.9 2-6.8 2.1-21.7.1-29-4-15.1-15.8-29.2-24.2-29.1-1 .1-3.2.7-4.9 1.4z"/></svg>